<?xml version="1.0" encoding="UTF-8" standalone="no"?>
<!-- Generator: Adobe Illustrator 23.1.0, SVG Export Plug-In . SVG Version: 6.00 Build 0)  -->

<svg
   xmlns:dc="http://purl.org/dc/elements/1.1/"
   xmlns:cc="http://creativecommons.org/ns#"
   xmlns:rdf="http://www.w3.org/1999/02/22-rdf-syntax-ns#"
   xmlns:svg="http://www.w3.org/2000/svg"
   xmlns="http://www.w3.org/2000/svg"
   xmlns:sodipodi="http://sodipodi.sourceforge.net/DTD/sodipodi-0.dtd"
   xmlns:inkscape="http://www.inkscape.org/namespaces/inkscape"
   version="1.1"
   id="Layer_1"
   x="0px"
   y="0px"
   viewBox="0 0 2000 2000"
   style="enable-background:new 0 0 2000 2000;"
   xml:space="preserve"
   sodipodi:docname="Smoking Lion Brand - Yellow - Round Social.svg"
   inkscape:version="0.92.4 (5da689c313, 2019-01-14)"><metadata
   id="metadata35"><rdf:RDF><cc:Work
       rdf:about=""><dc:format>image/svg+xml</dc:format><dc:type
         rdf:resource="http://purl.org/dc/dcmitype/StillImage" /><dc:title></dc:title></cc:Work></rdf:RDF></metadata><defs
   id="defs33" /><sodipodi:namedview
   pagecolor="#ffffff"
   bordercolor="#666666"
   borderopacity="1"
   objecttolerance="10"
   gridtolerance="10"
   guidetolerance="10"
   inkscape:pageopacity="0"
   inkscape:pageshadow="2"
   inkscape:window-width="1920"
   inkscape:window-height="1017"
   id="namedview31"
   showgrid="false"
   inkscape:zoom="0.118"
   inkscape:cx="1000"
   inkscape:cy="1000"
   inkscape:window-x="3832"
   inkscape:window-y="-8"
   inkscape:window-maximized="1"
   inkscape:current-layer="Layer_1" />
<style
   type="text/css"
   id="style2">
	.st0{fill:#FFCD34;}
	.st1{fill:#851719;}
	.st2{fill:#231F20;}
</style>
<g
   id="g28"
   transform="matrix(0.86627658,0,0,0.86627658,117.33577,162.85012)">
	<path
   class="st0"
   d="M 1728.9,249.4 C 1153.7,249.4 1028.7,4 1028.7,4 c 0,0 -127,245.3 -700.2,245.3 -15.8,0 -28.6,13.1 -28.6,28.8 v 978.4 c 0,400.5 688.1,706.6 717.1,719.4 3.9,1.7 7.6,2.4 11.7,2.4 3.7,0 7.8,-0.7 11.4,-2.4 29.4,-12.8 717.4,-319 717.4,-719.4 V 278.1 c 0,-15.7 -12.8,-28.7 -28.6,-28.7 m -28.7,996.7 c 0,369 -633.9,651.1 -660.9,662.8 -3.2,1.6 -7.1,2.2 -10.5,2.2 -3.9,0 -7.3,-0.6 -10.8,-2.2 -26.7,-11.7 -660.7,-293.8 -660.7,-662.8 V 344.7 c 0,-14.5 11.8,-26.5 26.5,-26.5 528.2,0 645,-229.8 645,-229.8 0,0 115.1,229.8 645.2,229.8 14.6,0 26.3,12 26.3,26.5 v 901.4 z"
   id="path4"
   inkscape:connector-curvature="0"
   style="fill:#ffcd34" />
	<polygon
   class="st1"
   points="1027,80.6 1111.5,168.4 1348,289.3 1671.2,321 1699.2,321 1699.2,1282.2 1649.8,1461.2 1437.5,1668.7 1222.3,1823 1031.8,1899.8 811.5,1788 451,1514.2 364.4,1324.1 364.4,308 707,273.4 930.6,168.4 "
   id="polygon6"
   style="fill:#851719" />
	<polyline
   class="st2"
   points="500.6,314 579.2,314 1671.2,1286.8 1684.3,1351.2 1607.9,1509.5 1497.1,1605.5 351.8,583.7    364.4,335.8  "
   id="polyline8"
   style="fill:#231f20" />
	<g
   id="g20">
		<path
   class="st0"
   d="m 1080.8,444.6 c 0,0 23,2.7 24.8,20.7 1.8,18 -14.4,28 -23.4,33.4 -9,5.4 -1.8,20.7 19.8,10.8 21.6,-9.9 36.1,-38.3 27,-60 -6.3,-15 -28.6,-33.5 -54.6,-28.1 -25.9,5.5 -20,28.4 6.4,23.2 z"
   id="path10"
   inkscape:connector-curvature="0"
   style="fill:#ffcd34" />
		<path
   class="st0"
   d="m 1110.1,367.1 c 0,0 -93.8,-15.3 -111.8,21.6 0,0 -43.3,0.7 -58.1,14.9 -14.9,14.2 -16.2,24.3 -27.7,26.4 -11.5,2 -69.7,-1.4 -89.9,16.9 -20.3,18.3 -14.2,36.5 -13.5,46 0.7,9.5 14.2,41.2 35.2,41.9 0,0 4.1,-21.6 35.2,-21.6 31.1,0 51.4,2.7 58.2,10.8 6.8,8.1 10.8,41.9 -12.2,58.2 -23,16.2 -55.5,12.2 -59.5,0 -4.1,-12.2 -31.6,-13.3 -30.7,10.7 0.9,24 26.5,41.1 53.8,38.4 27.3,-2.7 16.5,10.8 -6,18 C 860.3,656.5 744,725.5 740,858 c 0,0 31.1,-31.8 69,-35.2 0,0 -9.5,-96 67.6,-123.1 0,0 -136.8,155.5 66.2,206.9 0,0 -19.3,-54.6 -15.7,-105.9 3.6,-51.4 60.4,-131.6 132.5,-140.6 0,0 -112.7,71.2 -103.7,141.6 9,70.3 69.4,113.6 69.4,113.6 0,0 -5.4,-34.9 53.4,-118.1 58.8,-83.2 60.9,-106.8 58.2,-190 0,0 17.4,7.2 20.1,32.5 2.7,25.2 9.9,88.1 -16.2,119.7 -26.1,31.6 -73.9,104.6 -73.9,104.6 0,0 111.3,7.7 142.5,-91.1 31.1,-98.7 9.9,-215.9 -45.1,-256.1 0,0 35.2,1.8 50.9,24.8 15.8,23 10.8,55.5 20.3,55.9 9.4,0.4 42.3,-194.4 -125.4,-230.4 z m -141,88.5 c -7.7,3.3 -35.7,11.1 -38,-6.3 -2.6,-20 21.2,-17.6 21.2,-17.6 18.3,-0.3 32.5,-13.9 32.5,-13.9 3,12.8 -4.1,32.8 -15.7,37.8 z"
   id="path12"
   inkscape:connector-curvature="0"
   style="fill:#ffcd34" />
		<path
   class="st0"
   d="m 976.6,898.6 c 0,0 4,31.1 15.5,41.9 0,0 -82.3,-7.2 -117.4,-31.6 -35.2,-24.3 -44.2,-57.7 -66.7,-58.6 -22.5,-0.9 -60,31.6 -100.5,64.9 -40.6,33.4 -81.1,68.5 -124.4,71.2 -43.3,2.7 -31.1,-50.5 -55.4,-54.1 -24.3,-3.6 -70.3,37.9 -55.9,65.8 0,0 16.2,-19.8 28.9,-12.6 12.6,7.2 18,24.3 8.1,28 -9.9,3.6 -44.2,4.5 -36.1,40.6 8.1,36.1 32.5,39.7 44.2,38.8 0,0 -33.4,-42.4 9,-46.9 0,0 -7.2,72.4 61.3,47 0,0 -20.7,-8.2 -22.5,-26.3 -1.8,-18 10.8,-23.4 31.6,-23.4 20.7,0 30.7,7.2 30.7,18 0,10.8 -9.9,18.9 -9.9,18.9 0,0 28.9,7.2 41.5,-5.4 12.6,-12.6 37.9,-61.3 54.1,-59.5 16.2,1.8 -9.9,37 -9.9,37 0,0 31.6,1.8 42.4,-12.6 10.8,-14.4 20.7,-41.5 32.5,-39.7 11.7,1.8 1.8,42.4 1.8,42.4 0,0 21.6,1.8 36.1,-18 14.4,-19.8 10.8,-38.8 26.1,-37.9 15.3,0.9 102.8,123.1 159.6,158.2 56.8,35.2 167.7,74.4 169,128.5 1.4,54.1 -88.8,103.7 -72.6,157.8 16.2,54.1 101,73.9 102.8,117.2 1.8,43.3 -38.8,133.4 -65.8,130.7 -27.1,-2.7 -1.8,-52.3 -18,-60.4 -16.2,-8.1 -78.4,7.2 -84.7,55 0,0 32.5,-19.8 43.3,-9 10.8,10.8 15.3,37 1.8,39.7 -13.5,2.7 -73,35.6 -8.8,69.4 0,0 -3.4,-30.4 27,-27.7 30.4,2.7 13.5,43.3 40.6,52.7 27,9.5 39.2,-5.4 39.2,-5.4 0,0 -16.9,-5.4 -16.2,-14.9 0.7,-9.5 5.1,-18.9 15.2,-20.3 10.1,-1.3 21,-16.9 23,-37.5 2,-20.6 16.1,-48.8 35.5,-52.4 19.4,-3.6 62.7,-12.2 77.5,-37 0,0 -28.2,3.8 -27.5,-9 0.7,-12.8 27.7,-13.5 41.3,-24.3 13.5,-10.8 35.8,-36.5 40.6,-51.4 0,0 -25.9,9 -34,-1.8 -8.1,-10.8 54.1,-59.5 41.5,-97.4 0,0 -9.9,13.5 -35.2,15.3 -25.2,1.8 -56.8,-22.5 -64.9,-36.1 -8.1,-13.5 -18.9,-36.1 11.7,-60.4 30.7,-24.3 55.9,-42.4 58.6,-54.1 2.7,-11.7 6.3,-26.1 12.6,-23.4 6.3,2.7 32,30.7 78,25.2 46,-5.4 85.2,-47.3 82.5,-105.5 -2.7,-58.1 -39.2,-110.9 -86.6,-151.5 -47.3,-40.6 -124.4,-98.3 -128,-125.3 -3.6,-27.1 -3.2,-74.8 2.7,-83.9 5.9,-9 20.3,-11.3 20.3,3.2 0,14.5 8.3,89 50.9,122.2 42.6,33.1 73,0 75.1,-12.8 0,0 -16.2,7.4 -23.7,-6.8 -7.4,-14.2 2.7,-128.5 -39.9,-153.5 -42.6,-25 -110.2,-14.9 -117,49.4 -6.8,64.2 2.7,124.7 58.6,177 55.9,52.3 134.3,122.6 136.1,180.3 1.8,57.7 -46,61.3 -66.7,31.6 -20.7,-29.8 -20.7,-59.5 -42.4,-84.8 -21.6,-25.3 -178.5,-137.9 -195.6,-167.7 -17.1,-29.7 -25.2,-103.7 -25.2,-103.7 0,0 -32.7,5.5 -43.3,5.4 -13.5,-0.1 -38.4,-2.3 -38.4,-2.3 0,0 -5.6,50.7 3.2,65.6 -0.3,0 -70.7,-22.3 -78.8,-52 z"
   id="path14"
   inkscape:connector-curvature="0"
   style="fill:#ffcd34" />
		<path
   class="st0"
   d="m 1010.4,1177.2 c 0,0 -96,70.3 -87.9,108.2 8.1,37.9 35.2,62.2 36.5,85.2 1.4,23 -91.3,108.2 -130.5,90.6 -39.2,-17.6 -12.8,-26.1 -7.4,-28.4 5.4,-2.3 11.3,-49.1 -18,-52.3 -29.3,-3.1 -60.9,0 -69,21.6 0,0 30.7,-2.7 35.2,6.3 4.5,9 9.9,35.1 -8.1,36 -18,0.9 -23.4,-13.5 -34.3,-11.7 -10.8,1.8 -47.8,37.9 -33.4,65.8 0,0 28.2,-21.2 43,-13.1 14.9,8.1 23,14.2 18.3,20.3 -4.7,6.1 -23.7,21 -14.2,41.9 9.5,21 28.4,35.2 28.4,35.2 0,0 2,-46.7 18.3,-42.6 16.2,4.1 8.8,16.9 8.8,16.9 0,0 23,4.1 33.8,-14.9 10.8,-18.9 9.1,-25.7 20.4,-25.7 11.3,0 60.7,-9.5 67.5,2 6.8,11.5 35.4,16 66.9,5.2 0,0 -16.2,-10.8 -13.5,-18 2.7,-7.2 95.6,9.9 104.6,-8.1 0,0 -49.6,-18.9 -37,-35.2 12.6,-16.2 33.4,8.5 46.9,-9 0,0 -19.8,-0.9 -19.8,-35.2 0,-34.3 6.3,-52.3 29.8,-73 23.4,-20.7 44.2,-36.1 41.5,-73.9 -2.8,-37.8 -126.8,-94.1 -126.8,-94.1 z"
   id="path16"
   inkscape:connector-curvature="0"
   style="fill:#ffcd34" />
		<path
   class="st0"
   d="m 779.2,692.6 c 0,0 -37.9,1.8 -70.3,-8.1 -32.5,-9.9 -113.6,-74.8 -111.8,-100.1 1.8,-25.2 2.9,-37.4 17.8,-38.8 14.9,-1.4 5.6,-41.3 -17.8,-48 -23.4,-6.8 -61.3,-2 -64,12.2 0,0 16.2,-4.7 19.6,3.1 3.4,7.8 -3.4,26 -3.4,26 0,0 -19.6,-25.7 -41.3,-26 -21.6,-0.3 -57.5,42.3 -31.8,65.3 0,0 18.3,-29.1 28.4,-23 10.1,6.1 18.3,25.7 7.4,26.4 -10.8,0.7 -21.6,-2 -25.7,5.4 -4.1,7.4 -14.9,51.4 22.3,49.4 0,0 2,-14.9 14.2,-16.2 12.2,-1.4 23,5.4 26.4,19.6 3.4,14.2 -12.8,34.5 -30.4,27 0,0 14.2,35 53.9,44 39.7,9 47.8,10.8 46.9,21.6 -0.9,10.8 -18,17.1 -23.4,11.7 -5.4,-5.4 16.2,29.8 49.6,34.3 33.4,4.5 29.8,9 28.9,14.4 -0.9,5.4 -28,5.4 -28,5.4 0,0 9,32.4 72.1,26.1 0,-0.1 8.1,-102.9 60.4,-131.7 z"
   id="path18"
   inkscape:connector-curvature="0"
   style="fill:#ffcd34" />
	</g>
	<path
   class="st2"
   d="m 1702.3,280.6 c -553.4,0 -673.5,-236 -673.5,-236 0,0 -122.2,236 -673.6,236 -15.2,0 -27.5,12.6 -27.5,27.7 v 941.2 c 0,385.2 662,679.7 689.9,692.1 3.7,1.6 7.3,2.3 11.3,2.3 3.6,0 7.5,-0.7 11,-2.3 28.3,-12.4 690.1,-306.9 690.1,-692.1 V 308.3 c -0.2,-15.1 -12.5,-27.7 -27.7,-27.7 m -27.6,959 c 0,355 -609.8,626.4 -635.8,637.6 -3.1,1.6 -6.8,2.1 -10.1,2.1 -3.7,0 -7.1,-0.6 -10.4,-2.1 -25.7,-11.3 -635.6,-282.6 -635.6,-637.6 V 372.4 c 0,-14 11.4,-25.5 25.5,-25.5 508.1,0 620.5,-221.1 620.5,-221.1 0,0 110.7,221.1 620.7,221.1 14.1,0 25.3,11.5 25.3,25.5 v 867.2 z"
   id="path22"
   inkscape:connector-curvature="0"
   style="fill:#231f20" />
	<path
   class="st0"
   d="m 628.7,344.2 c 0,0 -43.8,25.1 -52.3,69.7 -8.5,44.6 30,46.6 30,46.6 0,0 64.9,-5.4 107.5,-23.4 0,0 49.3,-19.1 44.4,9.8 0.2,4.5 32.5,-51.2 -18.4,-47 C 632,412 622,407.5 622,407.5 c 0,0 -33.3,-7.9 6.7,-63.3 z"
   id="path24"
   inkscape:connector-curvature="0"
   style="fill:#ffcd34" />
	<path
   class="st0"
   d="m 642.2,396 c 0,0 103.7,-41 136.5,-1.4 15.9,44.5 -56,91.4 -42.6,144.3 7.9,9.8 19.3,36.9 72.8,8.4 C 789.1,547 767,525.6 789.5,468.8 790.9,455 884.7,304.9 750.4,339.8 662.8,365.5 642.2,396 642.2,396 Z"
   id="path26"
   inkscape:connector-curvature="0"
   style="fill:#ffcd34" />
</g>
</svg>